<svg width="27" height="27" viewBox="0 0 27 27" fill="none" xmlns="http://www.w3.org/2000/svg">
<path d="M23.9759 5.65631C24.5646 5.49855 25.0852 5.15153 25.4574 4.66875C25.8294 4.18596 26.0323 3.59419 26.035 2.98468V2.97743C26.035 2.24487 25.744 1.54232 25.2259 1.02433C24.7079 0.506337 24.0053 0.215332 23.2729 0.215332H23.2658C22.6563 0.217998 22.0646 0.421022 21.582 0.793103C21.0993 1.16518 20.7522 1.68569 20.5946 2.27439C20.1434 3.90892 19.1683 5.35028 17.8192 6.37745C16.47 7.40462 14.8212 7.96087 13.1255 7.96087C11.4299 7.96087 9.781 7.40462 8.43183 6.37745C7.08267 5.35028 6.10771 3.90892 5.65647 2.27439C5.49863 1.68573 5.15159 1.16531 4.66884 0.793319C4.18609 0.421314 3.59442 0.218383 2.98498 0.215794H2.97774C2.24519 0.215794 1.54263 0.506799 1.02463 1.02479C0.506642 1.54278 0.215637 2.24534 0.215637 2.97789V2.98514C0.218334 3.59458 0.421358 4.18623 0.793439 4.66894C1.16552 5.15162 1.68601 5.49857 2.27469 5.65631C3.90922 6.10755 5.3506 7.08252 6.37776 8.43168C7.40493 9.78083 7.96117 11.4297 7.96117 13.1254C7.96117 14.821 7.40493 16.4698 6.37776 17.8191C5.3506 19.1683 3.90922 20.1432 2.27469 20.5944C1.68604 20.7522 1.1656 21.0991 0.793547 21.5818C0.421496 22.0645 0.218488 22.6561 0.215792 23.2654V23.2727C0.215792 24.0053 0.506796 24.7078 1.02479 25.2259C1.5428 25.7438 2.24533 26.0348 2.97789 26.0348H2.98514C3.59459 26.0322 4.18623 25.8291 4.66893 25.457C5.15162 25.0849 5.49856 24.5644 5.65631 23.9757C6.10756 22.3412 7.08253 20.8999 8.43168 19.8727C9.78085 18.8454 11.4297 18.2893 13.1254 18.2893C14.821 18.2893 16.4699 18.8454 17.8191 19.8727C19.1681 20.8999 20.1432 22.3412 20.5944 23.9757C20.7521 24.5644 21.0991 25.085 21.5818 25.4572C22.0645 25.8292 22.6563 26.0323 23.2658 26.0349H23.273C24.0055 26.0349 24.7081 25.7438 25.226 25.2259C25.744 24.7079 26.0351 24.0053 26.0351 23.2728V23.2654C26.0325 22.6559 25.8294 22.0643 25.4574 21.5816C25.0852 21.099 24.5647 20.7521 23.976 20.5943C22.3416 20.143 20.9002 19.1681 19.873 17.8189C18.8458 16.4697 18.2896 14.8209 18.2896 13.1252C18.2896 11.4295 18.8458 9.78069 19.873 8.43153C20.9002 7.08237 22.3416 6.10741 23.976 5.65616L23.9759 5.65631Z" fill="#AF51C5"/>
<path d="M23.9759 5.65631C24.5646 5.49855 25.0852 5.15153 25.4574 4.66875C25.8294 4.18596 26.0323 3.59419 26.035 2.98468V2.97743C26.035 2.24487 25.744 1.54232 25.2259 1.02433C24.7079 0.506337 24.0053 0.215332 23.2729 0.215332H23.2658C22.6563 0.217998 22.0646 0.421022 21.582 0.793103C21.0993 1.16518 20.7522 1.68569 20.5946 2.27439C20.1434 3.90892 19.1683 5.35028 17.8192 6.37745C16.47 7.40462 14.8212 7.96087 13.1255 7.96087C11.4299 7.96087 9.781 7.40462 8.43183 6.37745C7.08267 5.35028 6.10771 3.90892 5.65647 2.27439C5.49863 1.68573 5.15159 1.16531 4.66884 0.793319C4.18609 0.421314 3.59442 0.218383 2.98498 0.215794H2.97774C2.24519 0.215794 1.54263 0.506799 1.02463 1.02479C0.506642 1.54278 0.215637 2.24534 0.215637 2.97789V2.98514C0.218334 3.59458 0.421358 4.18623 0.793439 4.66894C1.16552 5.15162 1.68601 5.49857 2.27469 5.65631C3.90922 6.10755 5.3506 7.08252 6.37776 8.43168C7.40493 9.78083 7.96117 11.4297 7.96117 13.1254C7.96117 14.821 7.40493 16.4698 6.37776 17.8191C5.3506 19.1683 3.90922 20.1432 2.27469 20.5944C1.68604 20.7522 1.1656 21.0991 0.793547 21.5818C0.421496 22.0645 0.218488 22.6561 0.215792 23.2654V23.2727C0.215792 24.0053 0.506796 24.7078 1.02479 25.2259C1.5428 25.7438 2.24533 26.0348 2.97789 26.0348H2.98514C3.59459 26.0322 4.18623 25.8291 4.66893 25.457C5.15162 25.0849 5.49856 24.5644 5.65631 23.9757C6.10756 22.3412 7.08253 20.8999 8.43168 19.8727C9.78085 18.8454 11.4297 18.2893 13.1254 18.2893C14.821 18.2893 16.4699 18.8454 17.8191 19.8727C19.1681 20.8999 20.1432 22.3412 20.5944 23.9757C20.7521 24.5644 21.0991 25.085 21.5818 25.4572C22.0645 25.8292 22.6563 26.0323 23.2658 26.0349H23.273C24.0055 26.0349 24.7081 25.7438 25.226 25.2259C25.744 24.7079 26.0351 24.0053 26.0351 23.2728V23.2654C26.0325 22.6559 25.8294 22.0643 25.4574 21.5816C25.0852 21.099 24.5647 20.7521 23.976 20.5943C22.3416 20.143 20.9002 19.1681 19.873 17.8189C18.8458 16.4697 18.2896 14.8209 18.2896 13.1252C18.2896 11.4295 18.8458 9.78069 19.873 8.43153C20.9002 7.08237 22.3416 6.10741 23.976 5.65616L23.9759 5.65631Z" fill="url(#paint0_linear_1_527)"/>
<defs>
<linearGradient id="paint0_linear_1_527" x1="8.63501" y1="-11.0106" x2="20.7269" y2="40.4251" gradientUnits="userSpaceOnUse">
<stop stop-color="#2F79CB"/>
<stop offset="1" stop-color="#AF51C5"/>
</linearGradient>
</defs>
</svg>
